<svg xmlns="http://www.w3.org/2000/svg" style="display:none">
  <symbol id="icon-cart" viewBox="0 0 24 24">
    <path fill="currentColor" d="M4 4h-2v2h2l3.6 7.59-1.35 2.45C5.52 16.37 6.48 18 8 18h12v-2H8.42c-.14 0-.25-.11-.25-.25l.03-.12L9.1 14h7.45c.75 0 1.41-.41 1.75-1.05L21 7H6.21zM7 20c-1.1 0-1.99.9-1.99 2S5.9 24 7 24s2-.9 2-2-.9-2-2-2zm10 0c-1.1 0-1.99.9-1.99 2S15.9 24 17 24s2-.9 2-2-.9-2-2-2z"/>
  </symbol>
  <symbol id="icon-user" viewBox="0 0 24 24">
    <path fill="currentColor" d="M12 2a5 5 0 0 0-5 5 5 5 0 0 0 10 0 5 5 0 0 0-5-5zm0 12c-4.42 0-8 2.24-8 5v3h16v-3c0-2.76-3.58-5-8-5z"/>
  </symbol>
  <symbol id="icon-support" viewBox="0 0 24 24">
    <path fill="currentColor" d="M12 2C6.48 2 2 6.48 2 12v7a3 3 0 0 0 3 3h6v-5H7v-2h4V9H8V7h4a3 3 0 0 1 3 3v5h4v2h-4v5h4a3 3 0 0 0 3-3v-7c0-5.52-4.48-10-10-10z"/>
  </symbol>
  <symbol id="icon-search" viewBox="0 0 24 24">
    <path fill="currentColor" d="M15.5 14h-.79l-.28-.27A6.471 6.471 0 0 0 16 9.5 6.5 6.5 0 1 0 9.5 16a6.471 6.471 0 0 0 4.23-1.57l.27.28v.79l5 4.99L20.49 19l-4.99-5zM9.5 14a4.5 4.5 0 1 1 .001-8.999A4.5 4.5 0 0 1 9.5 14z"/>
  </symbol>
</svg>
