<svg xmlns="http://www.w3.org/2000/svg" style="display:none">
  <symbol id="icon-cart" viewBox="0 0 24 24">
    <path fill="currentColor" d="M4 4h-2v2h2l3.6 7.59-1.35 2.45C5.52 16.37 6.48 18 8 18h12v-2H8.42c-.14 0-.25-.11-.25-.25l.03-.12L9.1 14h7.45c.75 0 1.41-.41 1.75-1.05L21 7H6.21zM7 20c-1.1 0-1.99.9-1.99 2S5.9 24 7 24s2-.9 2-2-.9-2-2-2zm10 0c-1.1 0-1.99.9-1.99 2S15.9 24 17 24s2-.9 2-2-.9-2-2-2z"/>
  </symbol>
  <symbol id="icon-user" viewBox="0 0 24 24">
    <path fill="currentColor" d="M12 2a5 5 0 0 0-5 5 5 5 0 0 0 10 0 5 5 0 0 0-5-5zm0 12c-4.42 0-8 2.24-8 5v3h16v-3c0-2.76-3.58-5-8-5z"/>
  </symbol>
  <symbol id="icon-support" viewBox="0 0 24 24">
    <path fill="currentColor" d="M12 2C6.48 2 2 6.48 2 12v7a3 3 0 0 0 3 3h6v-5H7v-2h4V9H8V7h4a3 3 0 0 1 3 3v5h4v2h-4v5h4a3 3 0 0 0 3-3v-7c0-5.52-4.48-10-10-10z"/>
  </symbol>
  <symbol id="icon-search" viewBox="0 0 24 24">
    <path fill="currentColor" d="M15.5 14h-.79l-.28-.27A6.471 6.471 0 0 0 16 9.5 6.5 6.5 0 1 0 9.5 16a6.471 6.471 0 0 0 4.23-1.57l.27.28v.79l5 4.99L20.49 19l-4.99-5zM9.5 14a4.5 4.5 0 1 1 .001-8.999A4.5 4.5 0 0 1 9.5 14z"/>
  </symbol>
  <symbol id="icon-lightning" viewBox="0 0 24 24">
    <path fill="currentColor" d="M13 2 3 14h7l-1 8 10-12h-7z"/>
  </symbol>
  <symbol id="icon-controller" viewBox="0 0 24 24">
    <path fill="currentColor" d="M6 3a5 5 0 0 0-5 5v6c0 3.31 2.69 6 6 6 1.64 0 3.12-.66 4.19-1.73a1.5 1.5 0 0 1 2.12 0A5.93 5.93 0 0 0 17.5 20c3.04 0 5.5-2.46 5.5-5.5V8a5 5 0 0 0-5-5zm0 2h12a3 3 0 0 1 3 3v5.5a3.5 3.5 0 0 1-7 0V12h-4v1.5a3.5 3.5 0 0 1-7 0V8a3 3 0 0 1 3-3zm1 3v2h-2v2h2v2h2v-2h2v-2H9V8zm8 1a1.5 1.5 0 1 0 0 3 1.5 1.5 0 0 0 0-3z"/>
  </symbol>
  <symbol id="icon-shield" viewBox="0 0 24 24">
    <path fill="currentColor" d="M12 2 4 5v6c0 4.97 3.05 9.61 8 11 4.95-1.39 8-6.03 8-11V5l-8-3zm0 2.18 6 2.25V11c0 3.73-2.34 7.27-6 8.65C8.34 18.27 6 14.73 6 11V6.43z"/>
  </symbol>
  <symbol id="icon-code" viewBox="0 0 24 24">
    <path fill="currentColor" d="M9.4 16.6 5.8 13l3.6-3.6-1.4-1.4L3 13l5 5zm5.2 0 3.6-3.6-3.6-3.6 1.4-1.4 5 5-5 5z"/>
  </symbol>
  <symbol id="icon-mail" viewBox="0 0 24 24">
    <path fill="currentColor" d="M4 4h16a2 2 0 0 1 2 2v12a2 2 0 0 1-2 2H4a2 2 0 0 1-2-2V6a2 2 0 0 1 2-2zm0 2v.51l8 5.33 8-5.33V6zm16 12V9.69l-7.4 4.94a1 1 0 0 1-1.2 0L4 9.69V18z"/>
  </symbol>
  <symbol id="icon-chevron" viewBox="0 0 24 24">
    <path fill="currentColor" d="M12 15.5 6.5 10 8 8.59l4 4 4-4L17.5 10z"/>
  </symbol>
  <symbol id="icon-clock" viewBox="0 0 24 24">
    <path fill="currentColor" d="M12 2a10 10 0 1 0 10 10A10 10 0 0 0 12 2zm0 2a8 8 0 1 1-8 8 8 8 0 0 1 8-8zm-.5 2v6l4.75 2.85 1-1.7-3.75-2.15V6z"/>
  </symbol>
</svg>
